/* XPM */
static const char *player_big[] = {
/* columns rows colors chars-per-pixel */
"85 85 153 2 ",
"   c #0E0C0C",
".  c #100F0E",
"X  c #15120E",
"o  c #19170E",
"O  c #1B1A0D",
"+  c #110F10",
"@  c #161414",
"#  c #1A1413",
"$  c #1D1B1B",
"%  c #231615",
"&  c #221D17",
"*  c #291917",
"=  c #271F1B",
"-  c #2E1C19",
";  c #23220F",
":  c #383A0F",
">  c #262511",
",  c #2A2915",
"<  c #26231C",
"1  c #2A241B",
"2  c #2D2A1B",
"3  c #302A1B",
"4  c #392C18",
"5  c #333312",
"6  c #3C3C13",
"7  c #37321B",
"8  c #3B391B",
"9  c #221F20",
"0  c #252223",
"q  c #292525",
"w  c #2E2A26",
"e  c #2A2728",
"r  c #2D2A2A",
"t  c #312E2D",
"y  c #333123",
"u  c #383626",
"i  c #3E3C23",
"p  c #363428",
"a  c #3B3B2C",
"s  c #343232",
"d  c #3A3535",
"f  c #3C3A39",
"g  c #413C1B",
"h  c #403D2D",
"j  c #413F3F",
"k  c #3F4016",
"l  c #444415",
"z  c #494A15",
"x  c #424219",
"c  c #4A471B",
"v  c #4C4B1C",
"b  c #504E1B",
"n  c #4F5116",
"m  c #525416",
"M  c #565817",
"N  c #585A17",
"B  c #53531D",
"V  c #5A571B",
"C  c #5C5E18",
"Z  c #5E6117",
"A  c #5F6118",
"S  c #63641B",
"D  c #67691B",
"F  c #6A6C1B",
"G  c #6E711C",
"H  c #72751B",
"J  c #4E4E24",
"K  c #45462C",
"L  c #4C4D2C",
"P  c #4F5020",
"I  c #4F512A",
"U  c #535323",
"Y  c #575826",
"T  c #5C5C23",
"R  c #545428",
"E  c #444031",
"W  c #4A4B31",
"Q  c #43413E",
"!  c #48463E",
"~  c #4C4B3B",
"^  c #525131",
"/  c #5F5F34",
"(  c #5F6020",
")  c #626423",
"_  c #676924",
"`  c #6B6D20",
"'  c #61622C",
"]  c #6D6F2A",
"[  c #6E7123",
"{  c #717322",
"}  c #747629",
"|  c #686934",
" . c #767733",
".. c #77773C",
"X. c #444343",
"o. c #494645",
"O. c #4D4B43",
"+. c #4C4A49",
"@. c #514F44",
"#. c #5E5D44",
"$. c #5D5C4D",
"%. c #555353",
"&. c #585656",
"*. c #5C5A59",
"=. c #615E5D",
"-. c #636144",
";. c #6C6C49",
":. c #787846",
">. c #75734F",
",. c #7A784F",
"<. c #62605F",
"1. c #7B7954",
"2. c #7C795E",
"3. c #656262",
"4. c #696564",
"5. c #6C6966",
"6. c #6B6868",
"7. c #6C6868",
"8. c #6C6968",
"9. c #6D6A69",
"0. c #6F6B6A",
"q. c #706C6B",
"w. c #706C6C",
"e. c #716D6D",
"r. c #706D6C",
"t. c #716E6D",
"y. c #736F6D",
"u. c #726E6D",
"i. c #74706F",
"p. c #7E7A6A",
"a. c #7E7A6D",
"s. c #747070",
"d. c #757170",
"f. c #777270",
"g. c #767271",
"h. c #787372",
"j. c #787473",
"k. c #7A7675",
"l. c #7C7776",
"z. c #7F7B73",
"x. c #7F7B74",
"c. c #7F7B75",
"v. c #7C7877",
"b. c #7D7877",
"n. c #7F7B76",
"m. c #7D7878",
"M. c #7E7978",
"N. c #7F7A79",
"B. c #7F7A7A",
"V. c #807C75",
"C. c #807B7A",
"Z. c #817C7B",
"A. c #827D7C",
/* pixels */
"H H H H H H H H H H H H H H H H H H H H H H H H H H H H H H H H H H H H H H H H H H H H H H H H H H H H H H H H H H H H H H H H H H H H H H H H H H H H H H H H H H H H H ",
"H H H H H H H H H H H H H H H H H H H H H H H H H H H H H H H H H H H H H H H H H H H H H H H H H H H H H H H H H H H H H H H H H H H H H H H H H H H H H H H H H H H H H ",
"H H H H H H H H H H H H H H H H H H H H H H H H H H H H H H H H H H H H H H H H H H H H H H H H H H H H H H H H H H H H H H H H H H H H H H H H H H H H H H H H H H H H H ",
"H H H H H H H H H H H H H H H H H H H H H H H H H H H H H H H H H H H H H H H H H H H H H H H H H H H H H H H H H H H H H H H H H H H H H H H H H H H H H H H H H H H H H ",
"H H H H H H H H H H H H H H H H H H H H H H H H H H H H H H H H H H H H H H H H H H H H H H H H H H H H H a Y H H H H H H H H H H H H H H H H H H H H H H H H H H H H H H ",
"H H H H H H H H H H H H H H H H H H H H H H H H H H H H H H H H H H H H H H H H H H H H H H H H H H H ` ^ T / #.#.L K U H H H H H H H H H H H H H H H H H H H H H H H H H ",
"H H H H H H H H H H H H H H H H H H H H H H H H H H H H H H H H H H H H H H H H H H H H H H H H H H S U d ' #.&.&.W a a T H H H H H H H H H H H H H H H H H H H H H H H H ",
"H H H H H H H H H H H H H H H H H H H H H H H H H H H H H H H H H H H H H H H H H H H H H H H H H H c < q +.%.&.&.[ I d d F H H H H H H H H H H H H H H H H H H H H H H H ",
"H H H H H H H H H H H H H H H H H H H H H H H H H H H H H H H H H H H H H H H H H H H H H H H H H H c = = o.%.&.&.&.&.&.&.{ L K H H H H H H H H H H H H H H H H H H H H H ",
"H H H H H H H H H H H H H H H H H H H H H H H H H H H H H H H H H H H H H H H H H H H H H H H H H H c = = +.*.<.=.=.*.&.&.-.@.! W W ) H H H H H H H H H H H H H H H H H H ",
"H H H H H H H H H H H H H H H H H H H H H H H H H H H H H H H H H H H H H H H H H H H H H H H H H H c = = %.4.w.w.0.3.*.*.*.%.+.+.j ^ ) H H H H H H H H H H H H H H H H H ",
"H H H H H H H H H H H H H H H H H H H H H H H H H H H H H H H H H H H H H H H H H H H H H H H H H H c = = =.h.A.Z.M.s.0.4.*.&.&.*.+.Q W G H H H H H H H H H H H H H H H H ",
"H H H H H H H H H H H H H H H H H H H H H H H H H H H H H H H H H H H H H H H H H H H H H H H H H H c = = =.s.Z.C.C.Z.C.M.6.*.&.&.*.| ) f G H H H H H H H H H H H H H H H ",
"H H H H H H H H H H H H H H H H H H H H H H H H H H H H H H H H H H H H H H H H H H H H H H H H H H c = = =.s.Z.C.C.C.Z.C.j.w.6.3.&.$.#.o.W ) H H H H H H H H H H H H H H ",
"H H H H H H H H H H H H H H H H H H H H H H H H H H H H H H H H H H H H H H H H H H H H H H H H H H c = = -.>.1.1.V.C.C.Z.M.v.j.0.=.*.&.%.X.^ ) H H H H H H H H H H H H H ",
"H H H H H H H H H H H H H H H H H H H H H H H H H H H H H H H H H H H H H H H H H H H H H H H H H H c = = F H H H p.v.v.C.C.C.C.M.0.=.&.&.%.X.W G H H H H H H H H H H H H ",
"H H H H H H H H H H H H H H H H H H H H H H H H H H H H H H H H H H H H H H H H H H H H H H H H H H c = = F H H H H H  .C.C.C.C.C.M.w.3.*.&.%.+.s G H H H H H H H H H H H ",
"H H H H H H H H H H H H H H H H H H H H H H H H H H H H H H H H H H H H H H H H H H H H H H H H H H c = = F H H H H H {  . . .:.C.M.l.s.4.*.&.+.f G H H H H H H H H H H H ",
"H H H H H H H H H H H H H H H H H H H H H H H H H H H H H H H H H H H H H H H H H H H H H H H H H H c = = F H H H H H H H H H } 1.1.p.v.i.3.*.&.o.Y D H H H H H H H H H H ",
"H H H H H H H H H H H H H H H H H H H H H H H H H H H H H H G F F F F F F H H H H H H H H H H H H H c = = F H H H H H H H H H H H H ,.z.z.w.0.3.%.d T H H H H H H H H H H ",
"H H H H H H H H H H H H H H H H H H H H H H H H H H H H H H l             A H H H H H H H H H H H H c = = F H H H H H H H H H H H H H H H V.C.k.0.+.' H H H H H H H H H H ",
"H H H H H H H H H H H H H H H H H H H H H H H H H H H H H 6 O             A H H H H H H H H H H H H c = = F H H H H H H H H H H H H H H H  .2.M.l.=.~ R H H H H H H H H H ",
"H H H H H H H H H H H H H H H H H H H H H H H H H H H H H ;               6 C H H H H H H H H H H H c = = F H H H H H H H H H H H H H H H H ..1.1.w.&.~ U H H H H H H H H ",
"H H H H H H H H H H H H H H H H H H H H H H H H H H H H F ;                 6 H H H H H H H H H H H v 1 = F H H H H H H H H H H H H H H H H H H H a.5.%.t H H H H H H H H ",
"H H H H H H H H H H H H H H H H H H H H H H H H H H H D           X # # # # l H H H H H H H H H H H H S = F H H H H H H H H H H H H H H H H H H H H ;.*.X.H H H H H H H H ",
"H H H H H H H H H H H H H H H H H H H H H H H H H H H D           # % * * % l H H H H H H H H H H H H S = 7 V H H H H H H H H H H H H H H H H H H H { ] _ H H H H H H H H ",
"H H H H H H H H H H H H H H H H H H H H H H H H H H H D           # # # # # l H H H H H H H H H H H H S = = b H H H H H H H H H H H H H H H H H H H H H H H H H H H H H H ",
"H H H H H H H H H H H H H H H H H H H H H H H H H H H D                     6 H H H H H H H H H H H H S = = b H H H H H H H H H H H H H H H H H H H H H H H H H H H H H H ",
"H H H H H H H H H H H H H H H H H H H H H H H H H H H D                     6 H H H H H H H H H H H H S = = b H H H H H H H H H H H H H H H H H H H H H H H H H H H H H H ",
"H H H H H H H H H H H H H H H H H H H H H H H H H H m ;                     o 5 H H H H H H H H H H H S = = b H H H H H H H H H H H H H H H H H H H H H H H H H H H H H H ",
"H H H H H H H H H H H H H H H H H H H H H H H H H n ,                         X l F H H H H H H H H H S = = b H H H H H H H H H H H H H H H H H H H H H H H H H H H H H H ",
"H H H H H H H H H H H H H H H H H H H H H H F D D ;                               M F H H H H H H H H S = = b H H H H H H H H H H H H H H H H H H H H H H H H H H H H H H ",
"H H H H H H H H H H H H H H H H H H H H H H z                                       l H H H H H H H H S = = b H H H H H H H H H H H H H H H H H H H H H H H H H H H H H H ",
"H H H H H H H H H H H H H H H H H H H H H 6 O                                       o 5 H H H H H H H S = 0 B H H H H H H H H H H H H H H H H H H H H H H H H H H H H H H ",
"H H H H H H H H H H H H H H H H H H H G l O                                           O H H H H H H H S 0 r i B H H H H H H H H H H H H H H H H H H H H H H H H H H H H H ",
"H H H H H H H H H H H H H H H H H H F C                                               > H H H H H H F V q s q 7 H H H H H H H H H H H H H H H H H H H H H H H H H H H H H ",
"H H H H H H H H H H H H H H H H H H z                                             . $ y H H H H H H x $ r s q 2 H H H H H H H H H H H H H H H H H H H H H H H H H H H H H ",
"H H H H H H H H H H H H H H H H H H z                                           . # 0 a H H H H H H c q s s J S H H H H H H H H H H H H H H H H H H H H H H H H H H H H H ",
"H H H H H H H H H H H H H H H H H H z                                         @ $ $ 9 t R G H H H v 7 0 w r U H H H H H H H H H H H H H H H H H H H H H H H H H H H H H H ",
"H H H H H H H H H H H H H H H H H H z                                       @ $ r 2 < q s D F D D < < 1 = < b H H H H H H H H H H H H H H H H H H H H H H H H H H H H H H ",
"H H H H H H H H H H H H H H H H H H z                                     @ $ q s D U s r D J r r q J S = = b H H H H H H H H H H H H H H H H H H H H H H H H H H H H H H ",
"H H H H H H H H H H H H H H H H H H z                               . @ 0 q q q s D F T q p w q d ( F S = = b H H H H H H H H H H H H H H H H H H H H H H H H H H H H H H ",
"H H H H H H H H H H H H H H H H H H z                             + @ = q e e r r D H D t r 0 q R G H S = = b H H H H H H H H H H H H H H H H H H H H H H H H H H H H H H ",
"H H H H H H H H H H H H H H H H H H z                             @ $ 0 0 q e r 0 D H F E a y 8 H H H S = = b H H H H H H H H H H H H H H H H H H H H H H H H H H H H H H ",
"H H H H H H H H H H H H H H H H H H z                           + @ = q r t 0 $ q D H H H H H H H H H S = = b H H H H H H H H H H H H H H H H H H H H H H H H H H H H H H ",
"H H H H H H H H H H H H H H H H H H F C                       . @ $ 0 0 9 = 0 y D H H H H H H H H H H H D 2 1 g H H H H H H H H H H H H H H H H H H H H H H H H H H H H H ",
"H H H H H H H H H H H H H H H H H H H F                     > 6 9 $ $ = q q i U H H H H H H H H H H H H H 3 = 7 H H H H H H H H H H H H H H H H H H H H H H H H H H H H H ",
"H H H H H H H H H H H H H H H H H H H F                     6 F u $ @ $ a a Y H H H H H H H H H H H H H H 3 = 7 H H H H H H H H H H H H H H H H H H H H H H H H H H H H H ",
"H H H H H H H H H H H H H H H H H H H F                     6 H H , @ < H H H H H H H H H H H H H H H H H 3 = 7 H H H H H H H H H H H H H H H H H H H H H H H H H H H H H ",
"H H H H H H H H H H H H H H H H H H H F                     6 H H , @ @ O S H H H H H H H H H H H H H H H 3 = 7 H H H H H H H H H H H H H H H H H H H H H H H H H H H H H ",
"H H H H H H H H H H H H H H H H H H H F                   : N F x & @ @   Z H H H H H H H H H H H H H H H 3 = 7 H H H H H H H H H H H H H H H H H H H H H H H H H H H H H ",
"H H H H H H H H H H H H H H H H H H H F                   z D D @ @ & >   A H H H H H H H H H H H H H H H 3 = 7 H H H H H H H H H H H H H H H H H H H H H H H H H H H H H ",
"H H H H H H H H H H H H H H H H H H H F                     6 D @ @ x F - S H H H H H H H H H H H H H H H 3 = 7 H H H H H H H H H H H H H H H H H H H H H H H H H H H H H ",
"H H H H H H H H H H H H H H H H H H H F                     6 H D 1 # > F H H H H H H H H H H H H H H H H 3 = 7 H H H H H H H H H H H H H H H H H H H H H H H H H H H H H ",
"H H H H H H H H H H H H H H H H H H H F                     6 H H , , z H H H H H H H H H H H H H H H H H 3 = 7 H H H H H H H H H H H H H H H H H H H H H H H H H H H H H ",
"H H H H H H H H H H H H H H H H H H H F ; X                 6 H H , x H H H H H H H H H H H H H H H H H H 8 7 x H H H H H H H H H H H H H H H H H H H H H H H H H H H H H ",
"H H H H H H H H H H H H H H H H H H H H H >                 6 H H , x H H H H H H H H H H H H H H H H H H H H H H H H H H H H H H H H H H H H H H H H H H H H H H H H H H ",
"H H H H H H H H H H H H H H H H H H H H H >                 6 H H , x H H H H H H H H H H H H H H H H H H H H H H H H H H H H H H H H H H H H H H H H H H H H H H H H H H ",
"H H H H H H H H H H H H H H H H H H H H H >                 6 H H , x H H H H H H H H H H H H H H H H H H H H H H H H H H H H H H H H H H H H H H H H H H H H H H H H H H ",
"H H H H H H H H H H H H H H H H H H H H H >                 5 A H > k H H H H H H H H H H H H H H H H H H H H H H H H H H H H H H H H H H H H H H H H H H H H H H H H H H ",
"H H H H H H H H H H H H H H H H H H H H H >                   O H O : H H H H H H H H H H H H H H H H H H H H H H H H H H H H H H H H H H H H H H H H H H H H H H H H H H ",
"H H H H H H H H H H H H H H H H H H H H H >                   O H 4 c H H H H H H H H H H H H H H H H H H H H H H H H H H H H H H H H H H H H H H H H H H H H H H H H H H ",
"H H H H H H H H H H H H H H H H H H H H H >                 > z H V S H H H H H H H H H H H H H H H H H H H H H H H H H H H H H H H H H H H H H H H H H H H H H H H H H H ",
"H H H H H H H H H H H H H H H H H H H H H >                 6 H H H H H H H H H H H H H H H H H H H H H H H H H H H H H H H H H H H H H H H H H H H H H H H H H H H H H H ",
"H H H H H H H H H H H H H H H H H H H H H >                 6 H H H H H H H H H H H H H H H H H H H H H H H H H H H H H H H H H H H H H H H H H H H H H H H H H H H H H H ",
"H H H H H H H H H H H H H H H H H H H H H >                 6 H H H H H H H H H H H H H H H H H H H H H H H H H H H H H H H H H H H H H H H H H H H H H H H H H H H H H H ",
"H H H H H H H H H H H H H H H H H H H H H m 5             6 C H H H H H H H H H H H H H H H H H H H H H H H H H H H H H H H H H H H H H H H H H H H H H H H H H H H H H H ",
"H H H H H H H H H H H H H H H H H H H H H H z             C H H H H H H H H H H H H H H H H H H H H H H H H H H H H H H H H H H H H H H H H H H H H H H H H H H H H H H H ",
"H H H H H H H H H H H H H H H H H H H H H H z             C H H H H H H H H H H H H H H H H H H H H H H H H H H H H H H H H H H H H H H H H H H H H H H H H H H H H H H H ",
"H H H H H H H H H H H H H H H H H H H H H H z             C H H H H H H H H H H H H H H H H H H H H H H H H H H H H H H H H H H H H H H H H H H H H H H H H H H H H H H H ",
"H H H H H H H H H H H H H H H H H H H H H H S l           C H H H H H H H H H H H H H H H H H H H H H H H H H H H H H H H H H H H H H H H H H H H H H H H H H H H H H H H ",
"H H H H H H H H H H H H H H H H H H H H H H H F       . , S H H H H H H H H H H H H H H H H H H H H H H H H H H H H H H H H H H H H H H H H H H H H H H H H H H H H H H H ",
"H H H H H H H H H H H H H H H H H H H H H H H F       O H H H H H H H H H H H H H H H H H H H H H H H H H H H H H H H H H H H H H H H H H H H H H H H H H H H H H H H H H ",
"H H H H H H H H H H H H H H H H H H H H H H H H G ;   O H H H H H H H H H H H H H H H H H H H H H H H H H H H H H H H H H H H H H H H H H H H H H H H H H H H H H H H H H ",
"H H H H H H H H H H H H H H H H H H H H H H H H H ;   O H H H H H H H H H H H H H H H H H H H H H H H H H H H H H H H H H H H H H H H H H H H H H H H H H H H H H H H H H ",
"H H H H H H H H H H H H H H H H H H H H H H H H H ;   O H H H H H H H H H H H H H H H H H H H H H H H H H H H H H H H H H H H H H H H H H H H H H H H H H H H H H H H H H ",
"H H H H H H H H H H H H H H H H H H H H H H H H H ;   o H H H H H H H H H H H H H H H H H H H H H H H H H H H H H H H H H H H H H H H H H H H H H H H H H H H H H H H H H ",
"H H H H H H H H H H H H H H H H H H H H H H H H H H l o H H H H H H H H H H H H H H H H H H H H H H H H H H H H H H H H H H H H H H H H H H H H H H H H H H H H H H H H H ",
"H H H H H H H H H H H H H H H H H H H H H H H H H H l o H H H H H H H H H H H H H H H H H H H H H H H H H H H H H H H H H H H H H H H H H H H H H H H H H H H H H H H H H ",
"H H H H H H H H H H H H H H H H H H H H H H H H H H m 6 H H H H H H H H H H H H H H H H H H H H H H H H H H H H H H H H H H H H H H H H H H H H H H H H H H H H H H H H H ",
"H H H H H H H H H H H H H H H H H H H H H H H H H H H H H H H H H H H H H H H H H H H H H H H H H H H H H H H H H H H H H H H H H H H H H H H H H H H H H H H H H H H H H ",
"H H H H H H H H H H H H H H H H H H H H H H H H H H H H H H H H H H H H H H H H H H H H H H H H H H H H H H H H H H H H H H H H H H H H H H H H H H H H H H H H H H H H H ",
"H H H H H H H H H H H H H H H H H H H H H H H H H H H H H H H H H H H H H H H H H H H H H H H H H H H H H H H H H H H H H H H H H H H H H H H H H H H H H H H H H H H H H ",
"H H H H H H H H H H H H H H H H H H H H H H H H H H H H H H H H H H H H H H H H H H H H H H H H H H H H H H H H H H H H H H H H H H H H H H H H H H H H H H H H H H H H H ",
"H H H H H H H H H H H H H H H H H H H H H H H H H H H H H H H H H H H H H H H H H H H H H H H H H H H H H H H H H H H H H H H H H H H H H H H H H H H H H H H H H H H H H "
};
