/* XPM */
static const char *playerdefualt[] = {
/* columns rows colors chars-per-pixel */
"64 64 132 2 ",
"   c #72751B",
".  c #050505",
"X  c #0C0A0A",
"o  c #0C0B0B",
"O  c #0D0B0B",
"+  c #0D0B0C",
"@  c #0D0C0C",
"#  c #0E0C0C",
"$  c #0E0D0E",
"%  c #100E0E",
"&  c #110F0F",
"*  c #110F10",
"=  c #131111",
"-  c #171010",
";  c #161414",
":  c #171414",
">  c #161415",
",  c #171515",
"<  c #171516",
"1  c #181110",
"2  c #1A1211",
"3  c #1B1312",
"4  c #181617",
"5  c #191718",
"6  c #1A1718",
"7  c #1B191A",
"8  c #1C191A",
"9  c #1C1A1B",
"0  c #1E1C1D",
"q  c #221614",
"w  c #261816",
"e  c #261E1A",
"r  c #271E1A",
"t  c #271F1A",
"y  c #271F1B",
"u  c #201D1F",
"i  c #211E1F",
"p  c #251E1C",
"a  c #2B1B18",
"   c #2E1C19",
"d  c #29211D",
"f  c #221F20",
"g  c #252223",
"h  c #262324",
"j  c #272425",
"k  c #2C2521",
"l  c #2C2522",
"z  c #282525",
"x  c #2A2524",
"c  c #282526",
"v  c #292627",
"b  c #2A2728",
"n  c #2B2828",
"m  c #2B2829",
"M  c #2C292A",
"N  c #2D292B",
"B  c #2D2A2B",
"V  c #2E2A2B",
"C  c #2E2B2C",
"Z  c #2F2C2D",
"A  c #2D2E2E",
"S  c #312D2E",
"D  c #322F30",
"F  c #332F30",
"G  c #313131",
"H  c #323232",
"J  c #333333",
"K  c #343031",
"L  c #353132",
"P  c #363132",
"I  c #363232",
"U  c #373334",
"Y  c #373335",
"T  c #343434",
"R  c #353535",
"E  c #363636",
"W  c #373636",
"Q  c #383435",
"!  c #3A3536",
"~  c #383737",
"^  c #383838",
"/  c #393838",
"(  c #3A3939",
")  c #3E3E3E",
"_  c #403F3F",
"`  c #433F3E",
"'  c #444343",
"]  c #474646",
"[  c #4D4948",
"{  c #4C4B4B",
"}  c #4D4B4B",
"|  c #4D4C4C",
" . c #72751B",
".. c #4F4D4D",
"X. c #504D4C",
"o. c #504F4F",
"O. c #535151",
"+. c #555353",
"@. c #575352",
"#. c #565454",
"$. c #575555",
"%. c #585656",
"&. c #585757",
"*. c #595757",
"=. c #5A5858",
"-. c #625F5E",
";. c #646161",
":. c #666362",
">. c #666463",
",. c #676464",
"<. c #6B6563",
"1. c #686464",
"2. c #686564",
"3. c #696665",
"4. c #6B6664",
"5. c #696666",
"6. c #6A6767",
"7. c #6C6665",
"8. c #6B6868",
"9. c #6C6968",
"0. c #6D6968",
"q. c #6F6C6B",
"w. c #777372",
"e. c #7D7877",
"r. c #7D7878",
"t. c #7E7978",
"y. c #7E7A79",
"u. c #7F7A7A",
"i. c #807B7A",
"p. c #817C7B",
"a. c #827D7C",
"s. c #72751B",
/* pixels */
" . . . . . . . . . . . . . . . . . . . . . . . . . . . . . . . . . . . . . . . . . . . . . . . . . . . . . . . . . . . . . . . .",
" . . . . . . . . . . . . . . . . . . . . . . . . . . . . . . . . . . . . . . . . . . . . . . . . . . . . . . . . . . . . . . . .",
" . . . . . . . . . . . . . . . . . . . . . . . . . . . . . . . . . . . . . . . . . . . . . . . . . . . . . . . . . . . . . . . .",
" . . . . . . . . . . . . . . . . . . . . . . . . . . . . . . . . . . . . . . . .G  . . . . . . . . . . . . . . . . . . . . . . .",
" . . . . . . . . . . . . . . . . . . . . . . . . . . . . . . . . . . . . . . .`  .$.$.T G  . . . . . . . . . . . . . . . . . . .",
" . . . . . . . . . . . . . . . . . . . . . . . . . . . . . . . . . . . . . .y l X.=.%. .T !  . . . . . . . . . . . . . . . . . .",
" . . . . . . . . . . . . . . . . . . . . . . . . . . . . . . . . . . . . . .y y [ %.%.%.$.%. .T  . . . . . . . . . . . . . . . .",
" . . . . . . . . . . . . . . . . . . . . . . . . . . . . . . . . . . . . . .y y @.>.:.:.%.%.=.[ ) /  . . . . . . . . . . . . . .",
" . . . . . . . . . . . . . . . . . . . . . . . . . . . . . . . . . . . . . .y y 7.a.p.r.9.:.%.%.=.[ /  . . . . . . . . . . . . .",
" . . . . . . . . . . . . . . . . . . . . . . . . . . . . . . . . . . . . . .y y 3.p.i.i.p.r.3.%.%.=. ./  . . . . . . . . . . . .",
" . . . . . . . . . . . . . . . . . . . . . . . . . . . . . . . . . . . . . .y y <.p.i.i.i.p.e.w.,.%.=.X./  . . . . . . . . . . .",
" . . . . . . . . . . . . . . . . . . . . . . . . . . . . . . . . . . . . . .y y  . . .i.i.i.i.p.r.3.%.%.O./  . . . . . . . . . .",
" . . . . . . . . . . . . . . . . . . . . . . . . . . . . . . . . . . . . . .y y  . . . . .i.i.i.i.r.3.=.%.O.G  . . . . . . . . .",
" . . . . . . . . . . . . . . . . . . . . . . . . . . . . . . . . . . . . . .y y  . . . . . . . .i.i.i.8.=.+.`  . . . . . . . . .",
" . . . . . . . . . . . . . . . . . . . . . . . . . . . . . . . . . . . . . .y y  . . . . . . . . . .i.i.q.3.O.G  . . . . . . . .",
" . . . . . . . . . . . . . . . . . . . . . . .# # # # #  . . . . . . . . . .y y  . . . . . . . . . . . .p.i.9.]  . . . . . . . .",
" . . . . . . . . . . . . . . . . . . . . . .# # # # # #  . . . . . . . . . .y y  . . . . . . . . . . . . .i.p.3.T  . . . . . . .",
" . . . . . . . . . . . . . . . . . . . . . .# # # # # # #  . . . . . . . . .y y  . . . . . . . . . . . . . . .i.-.Z  . . . . . .",
" . . . . . . . . . . . . . . . . . . . . .# # # # 1 1 1 -  . . . . . . . . . .y  . . . . . . . . . . . . . . . .3.'  . . . . . .",
" . . . . . . . . . . . . . . . . . . . . .# # # o w a   q  . . . . . . . . . .y y  . . . . . . . . . . . . . . . . . . . . . . .",
" . . . . . . . . . . . . . . . . . . . . .# # # # # + o #  . . . . . . . . . .y y  . . . . . . . . . . . . . . . . . . . . . . .",
" . . . . . . . . . . . . . . . . . . . . .# # # # # # # #  . . . . . . . . . .y y  . . . . . . . . . . . . . . . . . . . . . . .",
" . . . . . . . . . . . . . . . . . . . .# # # # # # # # # #  . . . . . . . . .y y  . . . . . . . . . . . . . . . . . . . . . . .",
" . . . . . . . . . . . . . . . . . . .# # # # # # # # # # # #  . . . . . . . .y y  . . . . . . . . . . . . . . . . . . . . . . .",
" . . . . . . . . . . . . . . . . .# # # # # # # # # # # # # # #  . . . . . . .y y  . . . . . . . . . . . . . . . . . . . . . . .",
" . . . . . . . . . . . . . . . .# # # # # # # # # # # # # # # # #  . . . . . .y l  . . . . . . . . . . . . . . . . . . . . . . .",
" . . . . . . . . . . . . . . .# # # # # # # # # # # # # # # # # o  . . . . . .z L i  . . . . . . . . . . . . . . . . . . . . . .",
" . . . . . . . . . . . . . .# # # # # # # # # # # # # # # # # % z  . . . . .< B Y 9  . . . . . . . . . . . . . . . . . . . . . .",
" . . . . . . . . . . . . . .# # # # # # # # # # # # # # # # % < D  . . . . .h L L  . . . . . . . . . . . . . . . . . . . . . . .",
" . . . . . . . . . . . . . .# # # # # # # # # # # # # # o = B 9 f Y  . . .6 7 p d  . . . . . . . . . . . . . . . . . . . . . . .",
" . . . . . . . . . . . . . .# # # # # # # # # # # # o o < z L  .L C  .B B z  .y y  . . . . . . . . . . . . . . . . . . . . . . .",
" . . . . . . . . . . . . . .# # # # # # # # # # # o < n B h L  . .z B f !  . .y y  . . . . . . . . . . . . . . . . . . . . . . .",
" . . . . . . . . . . . . . .# # # # # # # # # # o < h g j D h  . .! C 9  . . .y y  . . . . . . . . . . . . . . . . . . . . . . .",
" . . . . . . . . . . . . . .# # # # # # # # # # * 6 j B S 7 z  . . . . . . . .y y  . . . . . . . . . . . . . . . . . . . . . . .",
" . . . . . . . . . . . . . . .# # # # # # # # % 6 i j 0 9 n  . . . . . . . . . .y y  . . . . . . . . . . . . . . . . . . . . . .",
" . . . . . . . . . . . . . . .# # # # # # # o  .b 4 4 Z L  . . . . . . . . . . .y y  . . . . . . . . . . . . . . . . . . . . . .",
" . . . . . . . . . . . . . . .# # # # # # # #  . .< <  . . . . . . . . . . . . .y y  . . . . . . . . . . . . . . . . . . . . . .",
" . . . . . . . . . . . . . . .# # # # # # # #  . .4 < #  . . . . . . . . . . . .y y  . . . . . . . . . . . . . . . . . . . . . .",
" . . . . . . . . . . . . . . .# # # # # # #  . .4 < 4 .  . . . . . . . . . . . .y y  . . . . . . . . . . . . . . . . . . . . . .",
" . . . . . . . . . . . . . . .# # # # # # # #  .< <  .   . . . . . . . . . . . .y y  . . . . . . . . . . . . . . . . . . . . . .",
" . . . . . . . . . . . . . . .# # # # # # # #  . .4 +  . . . . . . . . . . . . .y y  . . . . . . . . . . . . . . . . . . . . . .",
" . . . . . . . . . . . . . . .# # # # # # # #  . .<  . . . . . . . . . . . . . .y y  . . . . . . . . . . . . . . . . . . . . . .",
" . . . . . . . . . . . . . . . .# # # # # # #  . .<  . . . . . . . . . . . . . . . . . . . . . . . . . . . . . . . . . . . . . .",
" . . . . . . . . . . . . . . . .# # # # # # #  . .<  . . . . . . . . . . . . . . . . . . . . . . . . . . . . . . . . . . . . . .",
" . . . . . . . . . . . . . . . .# # # # # # #  . .<  . . . . . . . . . . . . . . . . . . . . . . . . . . . . . . . . . . . . . .",
" . . . . . . . . . . . . . . . .# # # # # # # #  ..  . . . . . . . . . . . . . . . . . . . . . . . . . . . . . . . . . . . . . .",
" . . . . . . . . . . . . . . . .# # # # # # # #  .   . . . . . . . . . . . . . . . . . . . . . . . . . . . . . . . . . . . . . .",
" . . . . . . . . . . . . . . . .# # # # # # #  . . . . . . . . . . . . . . . . . . . . . . . . . . . . . . . . . . . . . . . . .",
" . . . . . . . . . . . . . . . .# # # # # # #  . . . . . . . . . . . . . . . . . . . . . . . . . . . . . . . . . . . . . . . . .",
" . . . . . . . . . . . . . . . .# # # # # # #  . . . . . . . . . . . . . . . . . . . . . . . . . . . . . . . . . . . . . . . . .",
" . . . . . . . . . . . . . . . . .# # # # #  . . . . . . . . . . . . . . . . . . . . . . . . . . . . . . . . . . . . . . . . . .",
" . . . . . . . . . . . . . . . . .# # # # #  . . . . . . . . . . . . . . . . . . . . . . . . . . . . . . . . . . . . . . . . . .",
" . . . . . . . . . . . . . . . . .# # # # #  . . . . . . . . . . . . . . . . . . . . . . . . . . . . . . . . . . . . . . . . . .",
" . . . . . . . . . . . . . . . . . .# # # #  . . . . . . . . . . . . . . . . . . . . . . . . . . . . . . . . . . . . . . . . . .",
" . . . . . . . . . . . . . . . . . .# # #  . . . . . . . . . . . . . . . . . . . . . . . . . . . . . . . . . . . . . . . . . . .",
" . . . . . . . . . . . . . . . . . . .# #  . . . . . . . . . . . . . . . . . . . . . . . . . . . . . . . . . . . . . . . . . . .",
" . . . . . . . . . . . . . . . . . . .# #  . . . . . . . . . . . . . . . . . . . . . . . . . . . . . . . . . . . . . . . . . . .",
" . . . . . . . . . . . . . . . . . . .# #  . . . . . . . . . . . . . . . . . . . . . . . . . . . . . . . . . . . . . . . . . . .",
" . . . . . . . . . . . . . . . . . . . .#  . . . . . . . . . . . . . . . . . . . . . . . . . . . . . . . . . . . . . . . . . . .",
" . . . . . . . . . . . . . . . . . . . .#  . . . . . . . . . . . . . . . . . . . . . . . . . . . . . . . . . . . . . . . . . . .",
" . . . . . . . . . . . . . . . . . . . . . . . . . . . . . . . . . . . . . . . . . . . . . . . . . . . . . . . . . . . . . . . .",
" . . . . . . . . . . . . . . . . . . . . . . . . . . . . . . . . . . . . . . . . . . . . . . . . . . . . . . . . . . . . . . . .",
" . . . . . . . . . . . . . . . . . . . . . . . . . . . . . . . . . . . . . . . . . . . . . . . . . . . . . . . . . . . . . . . .",
" . . . . . . . . . . . . . . . . . . . . . . . . . . . . . . . . . . . . . . . . . . . . . . . . . . . . . . . . . . . . . . . ."
};
