/* XPM */
static const char *wall[] = {
/* columns rows colors chars-per-pixel */
"64 64 172 2 ",
"   c #72751B",
".  c #72751B",
"X  c #72751B",
"o  c #72751B",
"O  c #72751B",
"+  c #72751B",
"@  c #72751B",
"#  c #72751B",
"$  c #72751B",
"%  c #72751B",
"&  c #563926",
"*  c #5B3B25",
"=  c #573C2B",
"-  c #5B3E2B",
";  c #603D25",
":  c #603F2A",
">  c #5C412E",
",  c #5B4333",
"<  c #5E4836",
"1  c #5C4739",
"2  c #5D4A3C",
"3  c #63442D",
"4  c #624633",
"5  c #644832",
"6  c #684B36",
"7  c #624D3D",
"8  c #684D39",
"9  c #61513F",
"0  c #69513E",
"q  c #5D4E41",
"w  c #5F5043",
"e  c #5F554A",
"r  c #614F42",
"t  c #635345",
"y  c #6C5643",
"u  c #6E5947",
"i  c #63554A",
"p  c #645A4D",
"a  c #6B5C4C",
"s  c #705946",
"d  c #735D4B",
"f  c #645C53",
"g  c #6A5E53",
"h  c #75604F",
"j  c #676057",
"k  c #6B6255",
"l  c #676159",
"z  c #6B645C",
"x  c #6F685E",
"c  c #746353",
"v  c #71655B",
"b  c #796758",
"n  c #72695E",
"m  c #786D5E",
"M  c #7B715E",
"N  c #6B6760",
"B  c #6D6962",
"V  c #716B62",
"C  c #796D60",
"Z  c #736F68",
"A  c #757065",
"S  c #7C7463",
"D  c #777269",
"F  c #7B756B",
"G  c #7D7A6E",
"H  c #7F7C70",
"J  c #817365",
"K  c #81766A",
"L  c #81796C",
"P  c #827D74",
"I  c #827E74",
"U  c #827F75",
"Y  c #837F75",
"T  c #827F74",
"R  c #837F76",
"E  c #817E72",
"W  c #848073",
"Q  c #838075",
"!  c #838175",
"~  c #828075",
"^  c #838177",
"/  c #848174",
"(  c #848075",
")  c #848175",
"_  c #868174",
"`  c #848275",
"'  c #858275",
"]  c #848076",
"[  c #848176",
"{  c #848177",
"}  c #858176",
"|  c #868176",
" . c #848277",
".. c #858277",
"X. c #858276",
"o. c #868376",
"O. c #868377",
"+. c #878377",
"@. c #868476",
"#. c #878477",
"$. c #868477",
"%. c #858275",
"&. c #888377",
"*. c #8A8377",
"=. c #858378",
"-. c #868278",
";. c #868378",
":. c #868379",
">. c #878378",
",. c #72751B",
"<. c #878478",
"1. c #868578",
"2. c #878578",
"3. c #868479",
"4. c #878479",
"5. c #878579",
"6. c #878679",
"7. c #86847A",
"8. c #87867A",
"9. c #868379",
"0. c #888579",
"q. c #89857A",
"w. c #88867A",
"e. c #89867B",
"r. c #88877B",
"t. c #89877B",
"y. c #88867B",
"u. c #8A877B",
"i. c #8B867B",
"p. c #89877D",
"a. c #89877C",
"s. c #8A877C",
"d. c #89867B",
"f. c #89887C",
"g. c #8A887C",
"h. c #8B887C",
"j. c #8A887D",
"k. c #8B887D",
"l. c #8A897D",
"z. c #8B897D",
"x. c #8A897E",
"c. c #8B897E",
"v. c #8B8A7E",
"b. c #8B8A7F",
"n. c #8C887C",
"m. c #8C897C",
"M. c #8C897D",
"N. c #8C897F",
"B. c #8C8A7E",
"V. c #8D8A7F",
"C. c #8B8B80",
"Z. c #8C8C80",
"A. c #8E8D82",
"S. c #8E8B81",
"D. c #908E84",
"F. c #908E85",
"G. c #908F85",
"H. c #918E86",
"J. c #918E85",
"K. c #909085",
"L. c #909086",
"P. c #929087",
"I. c #939188",
"U. c #939288",
"Y. c #949389",
"T. c #94928A",
"R. c #96938B",
"E. c #95958B",
"W. c #96948B",
"Q. c #96948C",
"!. c #96948C",
"~. c #72751B",
/* pixels */
" . . . . . . . . . . . . . . . . . . . . . . . . . . . . . . . . . . . . . . . . . . . . . . . . . . . . . . . . . . . . . . . .",
" . . . . . . . . . . . . . . . . . . . . . . . . . . . . . . . . . . . . . . . . . . . . . . . . . . . . . . . . . . . . . . . .",
" . . . . . . . . . . . . . . . . . . . . . . . . . . . . . . . . . . . . . . . . . . . . . . . . . . . . . . . . . . . . . . . .",
" . . . . . . . . . . . . . . . . . . . . . . . . . . . . . . . . . . . . . . . . . . . . . . . . . . . . . . . . . . . . . . . .",
" . . . . . . . . . . . . . . .y b b b b b c c c c c c c c c c c c c c c c c c c c c c b y  . . . . . . . . . . . . . . . . . . .",
" . . . . . . . . . . . . .3 b *.A.C.b.b.b.2.2.2.t.2.2.2.2.2.2.2.2.2.t.2.2.2.#.#.2.2.2.b.E K S 8  . . . . . . . . . . . . . . . .",
" . . . . . . . . . . . . .3 J I.t.t.2.o.#.o.E G E E E E E E E E E E E E E E E H Q t.2.2.t.s.s.t.s -  . . . . . . . . . . . . . .",
" . . . . . . . . . . . . .5 J K.o.o.o.#.o.D p 7 t t t t t t t t t t t t t t t t k G o.o.o.o.2.G.d :  . . . . . . . . . . . . . .",
" . . . . . . . . . . . . .5 J G.o.#.#.t.L 0 c m m m m m m m m m m m m m m m m C u t E o.o.W o.G.d :  . . . . . . . . . . . . . .",
" . . . . . . . . . . . . .5 J G.2.2.2.t.L 6 C I E I I o.2.2.:.:.:.:.:.:.o.o.:.2.d 7 E o.o.o.2.G.d -  . . . . . . . . . . . . . .",
" . . . . . . . . . . . . .3 S A.2.t.t.s.L 8 m I I I I I Q Q o.o.o.o.o.o.E H E I a 8 E o.o.2.t.G.d -  . . . . . . . . . . . . . .",
" . . . . . . . . . . . . .3 S G.t.t.t.b.L 8 m o.o.o.o.E H E I I I I o.o.E H H H a 0 o.t.2.2.t.G.d :  . . . . . . . . . . . . . .",
" . . . . . . . . . . . . .3 S I.b.b.t.b.L 8 C Q o.o.o.G D D H E E E o.o.E H G G a y :.t.t.2.s.Y.c 3  . . . . . . . . . . . . . .",
" . . . . . . . . . . . . .3 J Y.b.b.b.b.L 8 C I I o.o.E G G H H H H E H H G D D u y t.t.2.2.b.Y.c :  . . . . . . . . . . . . . .",
" . . . . . . . . . . . . .3 J Y.b.b.b.Z.E 8 m E L E E E E E G G G F D D D D C C u y t.t.t.2.b.Y.c -  . . . . . . . . . . . . . .",
" . . . . . . . . . . . . .3 J Y.b.b.b.b.b.o.b u u s s s s u u u u u u u u y y y b *.b.b.s.t.B.W.h -  . . . . . . . . . . . . . .",
" . . . . . . . . . . . . .3 J Q.b.b.b.B.B.B.b.b.B.B.B.B.B.B.B.B.B.B.B.B.b.b.t.t.s.B.b.b.b.b.B.Q.d *  . . . . . . . . . . . . . .",
" . . . . . . . . . . . . .3 c 2.A.G.A.Z.Z.Z.Z.Z.Z.B.B.B.Z.Z.Z.Z.B.B.Z.B.B.B.B.B.B.B.B.B.B.A.Z.D 4 +  . . . . . . . . . . . . . .",
" . . . . . . . . . . . . .- a A D G b.G.G.G.G.G.G.G.Z.Z.Z.Z.Z.Z.Z.Z.Z.Z.Z.Z.A.A.G.G.G.G.G.:.V f = o  . . . . . . . . . . . . . .",
" . . . . . . . . . . . . .- a A F G D V Z Z V n n n n n n V V V V V V V n n n n v x x v z n Z x - o  . . . . . . . . . . . . . .",
" . . . . . . . . . . . . .* t D I Z V V V V n n n n n V V V V V V V V V n x x x x x x x z z x D 4    . . . . . . . . . . . . . .",
" . . . . . . . . . . . . .% g F V n x n n n n n n n n V V V V V V V V V V V V V V V x x x x x D 4    . . . . . . . . . . . . . .",
" . . . . . . . . . . . . .# g F x x x x x x x n V V V V V V V V V V V V V V V V V V x x x x B D 4    . . . . . . . . . . . . . .",
" . . . . . . . . . . . . .# a D x x x n V V V V V V V V V V V V V V V V V V V V V V V V x x V D 4    . . . . . . . . . . . . . .",
" . . . . . . . . . . . . .# t z z z z z z z z z x x x x x x x x x x x x x x x x z z z z z z z v ,  . . . . . . . . . . . . . . .",
" . . . . . . . . . . . . . . .& , q w w w w t t i i i i i i i i i i i t t w w w w w w w w 2 > @  . . . . . . . . . . . . . . . .",
" . . . . . . . . . . . . . . . . .& 2 q q q q w w t t i i i i i i t t w w q q q q 2 2 2 , &  . . . . . . . . . . . . . . . . . .",
" . . . . . . . . . . . . . . . . . .@ & - - - > , , - , 2 2 2 2 < < , , > > - - - - - @ +  . . . . . . . . . . . . . . . . . . .",
" . . . . . . . . . . . . . . . . . .. > z l l z z g , t z z z z z z z z z z z z z z j $  . . . . . . . . . . . . . . . . . . . .",
" . . . . . . . . . . . . . . . . . .. , z l z z z j 2 i z z z z z z z z z z z z z N z $  . . . . . . . . . . . . . . . . . . . .",
" . . .!.!.!.!.!.!.!.!.!.!.!.!.!.!.!.. , z l z z z j 1 t z z z z z z z z z z z z z N z $ !.!.!.!.!.!.!.!.!.!.!.!.!.!.!.!.!.!.!.!.",
"!.!.!.!.!.!.!.!.!.!.!.!.!.!.!.!.!.!.. , z l l l z j 2 t z z z z z z z z z z z z z N z $ !.!.!.!.!.!.!.!.!.!.!.!.!.!.!.!.!.!.!.!.",
"!.!.!.!.!.!.!.!.!.!.!.!.!.!.!.!.!.!.. , z z z z z j 2 t z z z z z z z z z z z z z N l $ !.!.!.!.!.!.!.!.!.!.!.!.!.!.!.!.!.!.!.!.",
"!.!.!.!.!.!.!.!.!.!.!.!.!.!.!.!.!.!.. > f f f f p i , > 2 f g j g g k k l g g g g g f $ !.!.!.!.!.!.!.!.!.!.!.!.!.!.!.!.!.!.!.!.",
"!.!.!.!.!.!.!.!.!.!.!.!.!.!.!.!.!.!.!.- 2 q t 2 2 1 1 < 2 2 i p p i 2 1 t f i i i t r & !.!.!.!.!.!.!.!.!.!.!.!.!.!.!.!.!.!.!.!.",
"!.!.!.!.!.!.!.!.!.!.!.!.!.!.!.!.!.!.. > j j j j j j j j l l l g g f , i x B B B B B x $ !.!.!.!.!.!.!.!.!.!.!.!.!.!.!.!.!.!.!.!.",
"!.!.!.!.!.!.!.!.!.!.!.!.!.!.!.!.!.!.. = f f f f f f f f f p e e f e , g B N N N N N z $ !.!.!.!.!.!.!.!.!.!.!.!.!.!.!.!.!.!.!.!.",
"!.!.!.!.!.!.!.!.!.!.!.!.!.!.!.!.!.!.. = f f f f f f f f p e e e f e , f B N N B B B z $ !.!.!.!.!.!.!.!.!.!.!.!.!.!.!.!.!.!.!.!.",
"!.!.!.!.!.!.!.!.!.!.!.!.!.!.!.!.!.!.  = f f f f f f f p e e e e f e , f B B B B B B z $ !.!.!.!.!.!.!.!.!.!.!.!.!.!.!.!.!.!.!.!.",
"!.!.!.!.!.!.!.!.!.!.!.!.!.!.!.!.!.!.. & e e p f f f f f e e e p f e & p B B B B B B z $ !.!.!.!.!.!.!.!.!.!.!.!.!.!.!.!.!.!.!.!.",
"!.!.!.!.!.!.!.!.!.!.!.!.!.!.!.!.!.!.!.& 1 , 1 2 q q q q q q q 2 2 1 $ 2 i i p f p f i $ !.!.!.!.!.!.!.!.!.!.!.!.!.!.!.!.!.!.!.!.",
"!.!.!.!.!.!.!.!.!.!.!.!.!.!.4 4 3 3 @ , i i i p t - r i i p p i i i i i i i f f f f p & . O O O O O !.!.!.!.!.!.!.!.!.!.!.!.!.!.",
"!.!.!.!.!.!.!.!.!.!.!.!.0 v m m m m - , z N N N f 1 g z z z z z z z z z z z B B B B z $ - 7 7 7 7 7 < + !.!.!.!.!.!.!.!.!.!.!.!.",
"!.!.!.!.!.!.!.!.!.!.3 u o.H G G G G > > z z z z p , f z l l l l l l l l l l l l z z z $ > p p p p p 9 + !.!.!.!.!.!.!.!.!.!.!.!.",
"!.!.!.!.!.!.!.!.!.!.3 s t.E G G G G , > z z z z f 1 f l l l l l l l l l l l l l l l g $ , p p p p p t + !.!.!.!.!.!.!.!.!.!.!.!.",
"!.!.!.!.!.!.!.!.!.!.3 s t.E H H H G 4 , z z z z f 1 f z l l l l l l l l l l l l l l g @ , a p p p a t + !.!.!.!.!.!.!.!.!.!.!.!.",
"!.!.!.!.!.!.!.!.!.!.3 d t.Q E E E H 3 > z z z z f , f z z z l l l l l l l l l l l l g @ , a a a a a t + !.!.!.!.!.!.!.!.!.!.!.!.",
"!.!.!.!.!.!.!.!.!.!.3 d t.o.E E E E c t 7 t t t q , q t i i i i i i t q 2 2 1 1 1 1 2 < t a a a a n m @ !.!.!.!.!.!.!.!.!.!.!.!.",
"!.!.!.!.!.!.!.!.!.!.3 d b.o.W W W E y 7 v v x x x x x x x x x x x z q 2 , , g g g k g - 7 k k k k D L @ !.!.!.!.!.!.!.!.!.!.!.!.",
"!.!.!.!.!.!.!.!.!.!.3 d B.#.o.o.o.E 4 4 Z V B B B B N N N z z z z z N B i 1 l l z z g $ < k k k V Q F @ !.!.!.!.!.!.!.!.!.!.!.!.",
"!.!.!.!.!.!.!.!.!.!.3 d B.#.o.o.o.W 5 4 Z B B B B x x z z z z z l g g g i w l l l l f @ < k k n D Q F @ !.!.!.!.!.!.!.!.!.!.!.!.",
"!.!.!.!.!.!.!.!.!.!.3 d B.2.o.o.o.W 5 4 Z B B x x x z z z z z l g g g g i t l l l l f @ < k z D G Q F @ !.!.!.!.!.!.!.!.!.!.!.!.",
"!.!.!.!.!.!.!.!.!.!.3 d B.t.o.o.#.o.5 4 Z B x x x x z z z z l g g j l l q , g l l l g @ < n G G G Q F @ !.!.!.!.!.!.!.!.!.!.!.!.",
"!.!.!.!.!.!.!.!.!.!.3 d B.t.o.o.#.o.5 4 Z x x x z z z z j g g g g g z z q & g l l l f $ < n G G G ^ F @ !.!.!.!.!.!.!.!.!.!.!.!.",
"!.!.!.!.!.!.!.!.!.!.3 d B.t.o.o.o.o.S d 4 > > > > > > > > > - - - - - > & $ - - - - > t v F G G G ^ F @ !.!.!.!.!.!.!.!.!.!.!.!.",
"!.!.!.!.!.!.!.!.!.!.3 d B.t.o.o.o.o.o.W L S S S S S S S S M M M M M M m M M m m m m M F G G G H H :.F @ !.!.!.!.!.!.!.!.!.!.!.!.",
"!.!.!.!.!.!.!.!.!.!.3 d Z.t.o.o.o.o.o.o.o.o.o.o.o.W W W W E E E E E E H H H G G G H H G G G G H H :.L @ !.!.!.!.!.!.!.!.!.!.!.!.",
"!.!.!.!.!.!.!.!.!.!.3 d A.B.t.t.t.t.t.#.2.2.2.2.o.o.o.o.o.o.o.o.o.Q Q Q I E E E H E E E E E E E E 2.L @ !.!.!.!.!.!.!.!.!.!.!.!.",
"!.!.!.!.!.!.!.!.!.!.; s J.Z.Z.B.s.s.s.t.2.2.t.s.s.s.s.s.s.s.s.s.s.s.d.d.d.d.2.:.:.:.:.:.:.:.:.:.:.C.E @ !.!.!.!.!.!.!.!.!.!.!.!.",
"!.!.!.!.!.!.!.!.!.!.O 4 D V x x x x x x x x B V V V V V V V V V V V B B x x x z z z z z z z z l l D F @ !.!.!.!.!.!.!.!.!.!.!.!.",
"!.!.!.!.!.!.!.!.!.!.O > m z k k k k k k k k k k k z z z z z z z z z k k k k k g g f f f f f f f f x v @ !.!.!.!.!.!.!.!.!.!.!.!.",
"!.!.!.!.!.!.!.!.!.!.!.@ # # # # # # # # # # @ @ @ # @ @ @ @ @ @ @ @ @ @ @ @ @ @ + + + + + + + + + @ @ X !.!.!.!.!.!.!.!.!.!.!.!.",
"!.!.!.!.!.!.!.!.!.!.!.!.!.!.!.!.!.!.!.!.!.!.!.!.!.!.!.!.!.!.!.!.!.!.!.!.!.!.!.!.!.!.!.!.!.!.!.!.!.!.!.!.!.!.!.!.!.!.!.!.!.!.!.!.",
"!.!.!.!.!.!.!.!.!.!.!.!.!.!.!.!.!.!.!.!.!.!.!.!.!.!.!.!.!.!.!.!.!.!.!.!.!.!.!.!.!.!.!.!.!.!.!.!.!.!.!.!.!.!.!.!.!.!.!.!.!.!.!.!."
};
