/* XPM */
static const char *coin01[] = {
/* columns rows colors chars-per-pixel */
"64 64 4 1 ",
"  c #7A09FA",
". c #DB3FFD",
"X c #F389F5",
"o c #72751B",
/* pixels */
"oooooooooooooooooooooooooooooooooooooooooooooooooooooooooooooooo",
"oooooooooooooooooooooooooooooooooooooooooooooooooooooooooooooooo",
"oooooooooooooooooooooooooooooooooooooooooooooooooooooooooooooooo",
"oooooooooooooooooooooooooooooooooooooooooooooooooooooooooooooooo",
"oooooooooooooooooooooooooooooooooooooooooooooooooooooooooooooooo",
"oooooooooooooooooooooooooooooooooooooooooooooooooooooooooooooooo",
"oooooooooooooooooooooooooooooooooooooooooooooooooooooooooooooooo",
"ooooooooooooo................ooooooooooooooooooooooooooooooooooo",
"ooooooooooo.....................oooooooooooooooooooo ooooooooooo",
"oooooooooo........ooooooooooooooooooooooooooooooooo   oooooooooo",
"ooooooooo......ooooooooooooooooooooooooooooooooooo     ooooooooo",
"ooooooooo....oooooooooooooooooooooooooooooooooooooo    ooooooooo",
"ooooooooo...oooooooooooooooooooooooooooooooooooooooo    oooooooo",
"oooooooooo.oooooooooooooooooooooooooooooooooooooooooo    ooooooo",
"ooooooooooooooooooooooooooooooooooooooooooooooooooooo    ooooooo",
"ooooooooooooooooooooooooooooooooooooooooooooooooooooo    ooooooo",
"ooooooooooooooooooooooooooooooooooooooooooooooooooooo    ooooooo",
"oooooooooooooooooooooooooooooooooooooooooooooooooooooo   ooooooo",
"oooooooooooooooooooooooooooooooooooooooooooooooooooooo   ooooooo",
"oooooooooooooooooooooooooooooooooooooooooooooooooooooo   ooooooo",
"oooooooooooooooooooooooooooooooooooooooooooooooooooooo   ooooooo",
"oooooooooooooooooooooooooooooooooooooooooooooooooooooo   ooooooo",
"oooooooooooooooooooooooooooooooooooooooooooooooooooooo   ooooooo",
"oooooooooooooooooooooooooooooooooooooooooooooooooooooo   ooooooo",
"oooooooooooooooooooooooooooooooooooooooooooooooooooooo   ooooooo",
"oooooooooooooooooooooooooooooooooooooooooooooooooooooo   ooooooo",
"oooooooooooooooooooooooooooooooooooooooooooooooooooooo   ooooooo",
"oooooooooooooooooooooooooooooooooooooooooooooooooooooo   ooooooo",
"oooooooooooooooooooooooooooooooooooooooooooooooooooooo  oooooooo",
"oooooooooooooooooooooooooooooooooooooooooooooooooooooo ooooooooo",
"oooooooooooooooooooooooooooooooooooooooooooooooooooooo  oooooooo",
"oooooooooooooooooooooooooooooooooooooooooooooooooooooooooooooooo",
"ooooooooXXoooooooooooooooooooooooooooooooooooooooooooooooooooooo",
"oooooooooXoooooooooooooooooooooooooooooooooooooooooooooooooooooo",
"ooooooooXXoooooooooooooooooooooooooooooooooooooooooooooooooooooo",
"oooooooXXXoooooooooooooooooooooooooooooooooooooooooooooooooooooo",
"oooooooXXXoooooooooooooooooooooooooooooooooooooooooooooooooooooo",
"oooooooXXXoooooooooooooooooooooooooooooooooooooooooooooooooooooo",
"oooooooXXXoooooooooooooooooooooooooooooooooooooooooooooooooooooo",
"oooooooXXXoooooooooooooooooooooooooooooooooooooooooooooooooooooo",
"oooooooXXXoooooooooooooooooooooooooooooooooooooooooooooooooooooo",
"oooooooXXXoooooooooooooooooooooooooooooooooooooooooooooooooooooo",
"oooooooXXXoooooooooooooooooooooooooooooooooooooooooooooooooooooo",
"oooooooXXXoooooooooooooooooooooooooooooooooooooooooooooooooooooo",
"oooooooXXXoooooooooooooooooooooooooooooooooooooooooooooooooooooo",
"oooooooXXXoooooooooooooooooooooooooooooooooooooooooooooooooooooo",
"oooooooXXXXooooooooooooooooooooooooooooooooooooooooooooooooooooo",
"oooooooXXXXooooooooooooooooooooooooooooooooooooooooooooooooooooo",
"oooooooXXXXooooooooooooooooooooooooooooooooooooooooooooooooooooo",
"oooooooXXXXoooooooooooooooooooooooooooooooooooooooooo oooooooooo",
"ooooooooXXXXoooooooooooooooooooooooooooooooooooooooo   ooooooooo",
"oooooooooXXXXoooooooooooooooooooooooooooooooooooooo    ooooooooo",
"oooooooooXXXXXooooooooooooooooooooooooooooooooo        ooooooooo",
"ooooooooooXXXoooooooooooooooooooo  ooooooooooo        oooooooooo",
"oooooooooooXoooooooooooooooooooo                     ooooooooooo",
"oooooooooooooooooooooooooooooooooooo               ooooooooooooo",
"oooooooooooooooooooooooooooooooooooooooooooooooooooooooooooooooo",
"oooooooooooooooooooooooooooooooooooooooooooooooooooooooooooooooo",
"oooooooooooooooooooooooooooooooooooooooooooooooooooooooooooooooo",
"oooooooooooooooooooooooooooooooooooooooooooooooooooooooooooooooo",
"oooooooooooooooooooooooooooooooooooooooooooooooooooooooooooooooo",
"oooooooooooooooooooooooooooooooooooooooooooooooooooooooooooooooo",
"oooooooooooooooooooooooooooooooooooooooooooooooooooooooooooooooo",
"oooooooooooooooooooooooooooooooooooooooooooooooooooooooooooooooo"
};
