/* XPM */
static const char *coin03[] = {
/* columns rows colors chars-per-pixel */
"64 64 35 1 ",
"  c #7405FA",
". c #7406FA",
"X c #7506FA",
"o c #7A09FA",
"O c #7B0AFA",
"+ c #7D0BFA",
"@ c #7D0CFA",
"# c #7E0DFA",
"$ c #9C1CFB",
"% c #A320FB",
"& c #A420FB",
"* c #A521FB",
"= c #AD26FC",
"- c #A132F8",
"; c #CD37FD",
": c #DB3EFD",
"> c #DB3FFD",
", c #DC41FD",
"< c #DE41FD",
"1 c #DF41FD",
"2 c #DD46FC",
"3 c #E143FD",
"4 c #E254FB",
"5 c #E256FB",
"6 c #E65FF9",
"7 c #D469F6",
"8 c #DB70F6",
"9 c #DD71F6",
"0 c #E378F6",
"q c #F183F6",
"w c #F389F5",
"e c #F38AF5",
"r c #F48AF5",
"t c #F48BF5",
"y c #72751B",
/* pixels */
"yyyyyyyyyyyyyyyyyyyyyyyyyyyyyyyyyyyyyyyyyyyyyyyyyyyyyyyyyyyyyyyy",
"yyyyyyyyyyyyyyyyyyyyyyyyyyyyyyyyyyyyyyyyyyyyyyyyyyyyyyyyyyyyyyyy",
"yyyyyyyyyyyyyyyyyyyyyyyyyyyyyyyyyyyyyyyyyyyyyyyyyyyyyyyyyyyyyyyy",
"yyyyyyyyyyy>>>>>>>>>>>yyyyy....ooooooooooooooooooooooyyyyyyyyyyy",
"yyyyyyyyyy>>>>>>>>>>>>>yyy=%&&$oooooooooooooooooooooooyyyyyyyyyy",
"yyyyyyyy>>>>>>>>>>>>>>>>>>1313;+ooooooooooooooooooooooooyyyyyyyy",
"yyyyyyy>>>>>>>>>yyyyyyyyyyyyyyyyyyyyyyyyyyyyyooooooooooooyyyyyyy",
"yyyyyy>>>>>>>>yyyyyyyyyyyyyyyyyyyyyyyyyyyyyyyyyyooooooooooyyyyyy",
"yyyyyy>>>>>>>yyyyyyyyyyyyyyyyyyyyyyyyyyyyyyyyyyyyyooooooooyyyyyy",
"yyyyy>>>>>>>yyyyyyyyyyyyyyyyyyyyyyyyyyyyyyyyyyyyyyyyoooooooyyyyy",
"yyyyy>>>>>>yyyyyyyyyyyyyyyyyyyyyyyyyyyyyyyyyyyyyyyyyyooooooyyyyy",
"yyyyy>>>>>yyyyyyyyyyyyyyyyyyyyyyyyyyyyyyyyyyyyyyyyyyyyoooooyyyyy",
"yyyyy>>>>>yyyyyyyyyyyyyyyyyyyyyyyyyyyyyyyyyyyyyyyyyyyyyooooyyyyy",
"yyyyy>>>>yyyyyyyyyyyyyyyyyyyyyyyyyyyyyyyyyyyyyyyyyyyyyyyoooyyyyy",
"yyyyy>>>>yyyyyyyyyyyyyyyyyyyyyyyyyyyyyyyyyyyyyyyyyyyyyyyoooyyyyy",
"yyyyy>>>yyyyyyyyyyyyyyyyyyyyyyyyyyyyyyyyyyyyyyyyyyyyyyyyyooyyyyy",
"yyyyy>>>yyyyyyyyyyyyyyyyyyyyyyyyyyyyyyyyyyyyyyyyyyyyyyyyyooyyyyy",
"yyyyy>>>yyyyyyyyyyyyyyyyyyyyyyyyyyyyyyyyyyyyyyyyyyyyyyyyyooyyyyy",
"yyyyy>>yyyyyyyyyyyyyyyyyyyyyyyyyyyyyyyyyyyyyyyyyyyyyyyyyyooyyyyy",
"yyyyy>>yyyyyyyyyyyyyyyyyyyyyyyyyyyyyyyyyyyyyyyyyyyyyyyyyyooyyyyy",
"yyyyy>>yyyyyyyyyyyyyyyyyyyyyyyyyyyyyyyyyyyyyyyyyyyyyyyyyyooyyyyy",
"yyyyy>>yyyyyyyyyyyyyyyyyyyyyyyyyyyyyyyyyyyyyyyyyyyyyyyyyyooyyyyy",
"yyyyy>>yyyyyyyyyyyyyyyyyyyyyyyyyyyyyyyyyyyyyyyyyyyyyyyyyyoyyyyyy",
"yyyyy>>yyyyyyyyyyyyyyyyyyyyyyyyyyyyyyyyyyyyyyyyyyyyyyyyyyoyyyyyy",
"yyyyy>>yyyyyyyyyyyyyyyyyyyyyyyyyyyyyyyyyyyyyyyyyyyyyyyyyyoyyyyyy",
"yyyyy>>yyyyyyyyyyyyyyyyyyyyyyyyyyyyyyyyyyyyyyyyyyyyyyyyyyooyyyyy",
"yyyyy>>yyyyyyyyyyyyyyyyyyyyyyyyyyyyyyyyyyyyyyyyyyyyyyyyyyooyyyyy",
"yyyyy>>yyyyyyyyyyyyyyyyyyyyyyyyyyyyyyyyyyyyyyyyyyyyyyyyyyooyyyyy",
"yyyyy>>yyyyyyyyyyyyyyyyyyyyyyyyyyyyyyyyyyyyyyyyyyyyyyyyyyooyyyyy",
"yyyyy>>yyyyyyyyyyyyyyyyyyyyyyyyyyyyyyyyyyyyyyyyyyyyyyyyyyooyyyyy",
"yyyyy>>yyyyyyyyyyyyyyyyyyyyyyyyyyyyyyyyyyyyyyyyyyyyyyyyyyooyyyyy",
"yyyyy12yyyyyyyyyyyyyyyyyyyyyyyyyyyyyyyyyyyyyyyyyyyyyyyyyyooyyyyy",
"yyyyy5qyyyyyyyyyyyyyyyyyyyyyyyyyyyyyyyyyyyyyyyyyyyyyyyyyyooyyyyy",
"yyyyy5tyyyyyyyyyyyyyyyyyyyyyyyyyyyyyyyyyyyyyyyyyyyyyyyyyyooyyyyy",
"yyyyy5wyyyyyyyyyyyyyyyyyyyyyyyyyyyyyyyyyyyyyyyyyyyyyyyyyyooyyyyy",
"yyyyy5wyyyyyyyyyyyyyyyyyyyyyyyyyyyyyyyyyyyyyyyyyyyyyyyyyyooyyyyy",
"yyyyy6wyyyyyyyyyyyyyyyyyyyyyyyyyyyyyyyyyyyyyyyyyyyyyyyyyyooyyyyy",
"yyyyyywyyyyyyyyyyyyyyyyyyyyyyyyyyyyyyyyyyyyyyyyyyyyyyyyyyooyyyyy",
"yyyyyywyyyyyyyyyyyyyyyyyyyyyyyyyyyyyyyyyyyyyyyyyyyyyyyyyyooyyyyy",
"yyyyyywyyyyyyyyyyyyyyyyyyyyyyyyyyyyyyyyyyyyyyyyyyyyyyyyyyooyyyyy",
"yyyyywwyyyyyyyyyyyyyyyyyyyyyyyyyyyyyyyyyyyyyyyyyyyyyyyyyyooyyyyy",
"yyyyywwyyyyyyyyyyyyyyyyyyyyyyyyyyyyyyyyyyyyyyyyyyyyyyyyyyooyyyyy",
"yyyyywwyyyyyyyyyyyyyyyyyyyyyyyyyyyyyyyyyyyyyyyyyyyyyyyyyyooyyyyy",
"yyyyywwyyyyyyyyyyyyyyyyyyyyyyyyyyyyyyyyyyyyyyyyyyyyyyyyyoooyyyyy",
"yyyyywwyyyyyyyyyyyyyyyyyyyyyyyyyyyyyyyyyyyyyyyyyyyyyyyyyoooyyyyy",
"yyyyywwyyyyyyyyyyyyyyyyyyyyyyyyyyyyyyyyyyyyyyyyyyyyyyyyyoooyyyyy",
"yyyyywwyyyyyyyyyyyyyyyyyyyyyyyyyyyyyyyyyyyyyyyyyyyyyyyyyoooyyyyy",
"yyyyywwwyyyyyyyyyyyyyyyyyyyyyyyyyyyyyyyyyyyyyyyyyyyyyyyooooyyyyy",
"yyyyywwwyyyyyyyyyyyyyyyyyyyyyyyyyyyyyyyyyyyyyyyyyyyyyyyooooyyyyy",
"yyyyywwwwyyyyyyyyyyyyyyyyyyyyyyyyyyyyyyyyyyyyyyyyyyyyyoooooyyyyy",
"yyyyywwwwwyyyyyyyyyyyyyyyyyyyyyyyyyyyyyyyyyyyyyyyyyyyyoooooyyyyy",
"yyyyywwwwwwyyyyyyyyyyyyyyyyyyyyyyyyyyyyyyyyyyyyyyyyyyooooooyyyyy",
"yyyyywwwwwwwyyyyyyyyyyyyyyyyyyyyyyyyyyyyyyyyyyyyyyyyoooooooyyyyy",
"yyyyyywwwwwwwwyyyyyyyyyyyyyyyyyyyyyyyyyyyyyyyyyyyyyoooooooyyyyyy",
"yyyyyywwwwwwwwwwyyyyyyyyyyyyyyyyyyyyyyyyyyyyyyyyyyooooooooyyyyyy",
"yyyyyyywwwwwwwwwwwwyyyyyyyyyyyyyyyyyyyyyyyyyyyyyoooooooooyyyyyyy",
"yyyyyyyywwwwwwwwwwwwwwwwwwwwwwwwwt-o##ooooooooooooooooooyyyyyyyy",
"yyyyyyyyyywwwwwwwwwwwwwwwwwwwwwwww0897yyyoooooooooooooyyyyyyyyyy",
"yyyyyyyyyyyyyyyyyyyyyyyyyyyyyyyyyyyyyyyyyyyyyyyyyyyyyyyyyyyyyyyy",
"yyyyyyyyyyyyyyyyyyyyyyyyyyyyyyyyyyyyyyyyyyyyyyyyyyyyyyyyyyyyyyyy",
"yyyyyyyyyyyyyyyyyyyyyyyyyyyyyyyyyyyyyyyyyyyyyyyyyyyyyyyyyyyyyyyy",
"yyyyyyyyyyyyyyyyyyyyyyyyyyyyyyyyyyyyyyyyyyyyyyyyyyyyyyyyyyyyyyyy",
"yyyyyyyyyyyyyyyyyyyyyyyyyyyyyyyyyyyyyyyyyyyyyyyyyyyyyyyyyyyyyyyy",
"yyyyyyyyyyyyyyyyyyyyyyyyyyyyyyyyyyyyyyyyyyyyyyyyyyyyyyyyyyyyyyyy"
};
