/* XPM */
static const char *coin02[] = {
/* columns rows colors chars-per-pixel */
"64 64 4 1 ",
"  c #7A09FA",
". c #DB3FFD",
"X c #F389F5",
"o c #72751B",
/* pixels */
"oooooooooooooooooooooooooooooooooooooooooooooooooooooooooooooooo",
"oooooooooooooooooooooooooooooooooooooooooooooooooooooooooooooooo",
"oooooooooooooooooooooooooooooooooooooooooooooooooooooooooooooooo",
"oooooooooooooo........ooooooooooooo              ooooooooooooooo",
"ooooooooooooo..........ooooooooooo                oooooooooooooo",
"oooooooooo....................ooooooo               oooooooooooo",
"ooooooooo...........oooooooooooooooooo               ooooooooooo",
"oooooooo.........oooooooooooooooooooooooo             oooooooooo",
"ooooooo........ooooooooooooooooooooooooooooooo         ooooooooo",
"ooooooo.......oooooooooooooooooooooooooooooooooo       ooooooooo",
"ooooooo......oooooooooooooooooooooooooooooooooooo      ooooooooo",
"oooooo......oooooooooooooooooooooooooooooooooooooo     ooooooooo",
"oooooo.....oooooooooooooooooooooooooooooooooooooooo     oooooooo",
"oooooo.....ooooooooooooooooooooooooooooooooooooooooo    oooooooo",
"oooooo....oooooooooooooooooooooooooooooooooooooooooo    oooooooo",
"oooooo....ooooooooooooooooooooooooooooooooooooooooooo   oooooooo",
"oooooo....ooooooooooooooooooooooooooooooooooooooooooo   oooooooo",
"oooooo....ooooooooooooooooooooooooooooooooooooooooooo   oooooooo",
"oooooo....ooooooooooooooooooooooooooooooooooooooooooo   oooooooo",
"oooooo....oooooooooooooooooooooooooooooooooooooooooooo  oooooooo",
"oooooo...ooooooooooooooooooooooooooooooooooooooooooooo  oooooooo",
"oooooo...ooooooooooooooooooooooooooooooooooooooooooooo  oooooooo",
"oooooo...ooooooooooooooooooooooooooooooooooooooooooooo ooooooooo",
"oooooo..oooooooooooooooooooooooooooooooooooooooooooooo ooooooooo",
"oooooo..oooooooooooooooooooooooooooooooooooooooooooooo ooooooooo",
"oooooo.ooooooooooooooooooooooooooooooooooooooooooooooo ooooooooo",
"oooooo.ooooooooooooooooooooooooooooooooooooooooooooooo ooooooooo",
"oooooo.ooooooooooooooooooooooooooooooooooooooooooooooo ooooooooo",
"oooooooooooooooooooooooooooooooooooooooooooooooooooooo ooooooooo",
"oooooooooooooooooooooooooooooooooooooooooooooooooooooo ooooooooo",
"oooooooooooooooooooooooooooooooooooooooooooooooooooooooooooooooo",
"oooooooooooooooooooooooooooooooooooooooooooooooooooooooooooooooo",
"oooooooooooooooooooooooooooooooooooooooooooooooooooooooooooooooo",
"oooooooXoooooooooooooooooooooooooooooooooooooooooooooooooooooooo",
"oooooooXoooooooooooooooooooooooooooooooooooooooooooooooooooooooo",
"oooooooXooooooooooooooooooooooooooooooooooooooooooooooo oooooooo",
"oooooooXooooooooooooooooooooooooooooooooooooooooooooooo oooooooo",
"oooooooXooooooooooooooooooooooooooooooooooooooooooooooo oooooooo",
"oooooooXoooooooooooooooooooooooooooooooooooooooooooooo  oooooooo",
"oooooooXooooooooooooooooooooooooooooooooooooooooooooo   oooooooo",
"oooooooXooooooooooooooooooooooooooooooooooooooooooooo   oooooooo",
"ooooooXXooooooooooooooooooooooooooooooooooooooooooooo   oooooooo",
"ooooooXXooooooooooooooooooooooooooooooooooooooooooooo   oooooooo",
"ooooooXXoooooooooooooooooooooooooooooooooooooooooooo    oooooooo",
"ooooooXXXooooooooooooooooooooooooooooooooooooooooooo    oooooooo",
"ooooooXXXooooooooooooooooooooooooooooooooooooooooooo    oooooooo",
"ooooooXXXooooooooooooooooooooooooooooooooooooooooooo    oooooooo",
"ooooooXXXXoooooooooooooooooooooooooooooooooooooooooo    oooooooo",
"ooooooXXXXoooooooooooooooooooooooooooooooooooooooooo    oooooooo",
"ooooooXXXXooooooooooooooooooooooooooooooooooooooooo     oooooooo",
"ooooooXXXXXoooooooooooooooooooooooooooooooooooooooo     oooooooo",
"oooooooXXXXXoooooooooooooooooooooooooooooooooooooo      oooooooo",
"oooooooXXXXXXoooooooooooooooooooooooooooooooooooo      ooooooooo",
"oooooooXXXXXXXoooooooooooooooooooooooooooooooooo       ooooooooo",
"oooooooXXXXXXXXXooooooooooooooooooooooooooooooo       oooooooooo",
"ooooooooXXXXXXXXXXXXXoooooooooooooooooooooooo         oooooooooo",
"oooooooooXXXXXXXXXXXXXXXoooooooooooooooooo           ooooooooooo",
"ooooooooooXXXXXXXXXXXXXXXooooooo                    oooooooooooo",
"ooooooooooooXXXXXXXXXXXXXXXXooooooooooo          ooooooooooooooo",
"oooooooooooooooooooooooooooooooooooooooooooooooooooooooooooooooo",
"oooooooooooooooooooooooooooooooooooooooooooooooooooooooooooooooo",
"oooooooooooooooooooooooooooooooooooooooooooooooooooooooooooooooo",
"oooooooooooooooooooooooooooooooooooooooooooooooooooooooooooooooo",
"oooooooooooooooooooooooooooooooooooooooooooooooooooooooooooooooo"
};
